<svg aria-hidden="true" style="position: absolute; width: 0; height: 0; overflow: hidden;" version="1.1" xmlns="http://www.w3.org/2000/svg" xmlns:xlink="http://www.w3.org/1999/xlink">
<defs>
<symbol id="icon-saveContact" viewBox="0 0 32 32">
<path stroke-linejoin="round" stroke-linecap="round" stroke-miterlimit="4" stroke-width="2.6667" d="M25.333 28h-18.667c-1.473 0-2.667-1.194-2.667-2.667v0-18.667c0-1.473 1.194-2.667 2.667-2.667v0h14.667l6.667 6.667v14.667c0 1.473-1.194 2.667-2.667 2.667v0z"></path>
<path stroke-linejoin="round" stroke-linecap="round" stroke-miterlimit="4" stroke-width="2.6667" d="M22.667 28v-10.667h-13.333v10.667"></path>
<path stroke-linejoin="round" stroke-linecap="round" stroke-miterlimit="4" stroke-width="2.6667" d="M9.333 4v6.667h10.667"></path>
</symbol>
<symbol id="icon-filterContact" viewBox="0 0 32 32">
<path stroke-linejoin="round" stroke-linecap="round" stroke-miterlimit="4" stroke-width="2.6667" d="M29.333 4h-26.667l10.667 12.613v8.72l5.333 2.667v-11.387l10.667-12.613z"></path>
</symbol>
<symbol id="icon-editContact" viewBox="0 0 32 32">
<path stroke-linejoin="round" stroke-linecap="round" stroke-miterlimit="4" stroke-width="2.6667" d="M14.667 5.333h-9.333c-1.473 0-2.667 1.194-2.667 2.667v0 18.667c0 1.473 1.194 2.667 2.667 2.667v0h18.667c1.473 0 2.667-1.194 2.667-2.667v0-9.333"></path>
<path stroke-linejoin="round" stroke-linecap="round" stroke-miterlimit="4" stroke-width="2.6667" d="M24.667 3.333c0.512-0.512 1.219-0.828 2-0.828 1.562 0 2.828 1.266 2.828 2.828 0 0.781-0.317 1.488-0.828 2l-12.667 12.667-5.333 1.333 1.333-5.333 12.667-12.667z"></path>
</symbol>
<symbol id="icon-usersContact" viewBox="0 0 32 32">
<path stroke-linejoin="round" stroke-linecap="round" stroke-miterlimit="4" stroke-width="2.6667" d="M22.667 28v-2.667c0-2.946-2.388-5.333-5.333-5.333v0h-10.667c-2.946 0-5.333 2.388-5.333 5.333v0 2.667"></path>
<path stroke-linejoin="round" stroke-linecap="round" stroke-miterlimit="4" stroke-width="2.6667" d="M17.333 9.333c0 2.946-2.388 5.333-5.333 5.333s-5.333-2.388-5.333-5.333c0-2.946 2.388-5.333 5.333-5.333s5.333 2.388 5.333 5.333z"></path>
<path stroke-linejoin="round" stroke-linecap="round" stroke-miterlimit="4" stroke-width="2.6667" d="M30.667 28v-2.667c-0.002-2.47-1.683-4.547-3.963-5.152l-0.037-0.008"></path>
<path stroke-linejoin="round" stroke-linecap="round" stroke-miterlimit="4" stroke-width="2.6667" d="M21.333 4.173c2.324 0.61 4.010 2.691 4.010 5.167s-1.687 4.557-3.973 5.158l-0.037 0.008"></path>
</symbol>
<symbol id="icon-phoneContact" viewBox="0 0 32 32">
<path stroke-linejoin="round" stroke-linecap="round" stroke-miterlimit="4" stroke-width="2.6667" d="M29.333 22.56v4c0 0.003 0 0.007 0 0.011 0 1.473-1.194 2.667-2.667 2.667-0.084 0-0.168-0.004-0.251-0.012l0.011 0.001c-4.327-0.482-8.236-1.943-11.607-4.155l0.1 0.062c-3.242-2.081-5.919-4.758-7.938-7.897l-0.062-0.103c-2.158-3.286-3.62-7.214-4.083-11.442l-0.010-0.118c-0.007-0.072-0.011-0.155-0.011-0.24 0-1.472 1.192-2.665 2.664-2.667h4c0.008-0 0.017-0 0.026-0 1.341 0 2.451 0.99 2.639 2.279l0.002 0.014c0.188 1.4 0.515 2.665 0.973 3.864l-0.039-0.117c0.108 0.279 0.171 0.601 0.171 0.938 0 0.731-0.294 1.394-0.771 1.875l-1.693 1.693c1.932 3.356 4.644 6.068 7.897 7.945l0.103 0.055 1.693-1.693c0.482-0.476 1.144-0.771 1.875-0.771 0.337 0 0.66 0.063 0.957 0.177l-0.018-0.006c1.082 0.418 2.347 0.745 3.658 0.924l0.089 0.010c1.304 0.189 2.294 1.299 2.294 2.641 0 0.023-0 0.046-0.001 0.070l0-0.003z"></path>
</symbol>
<symbol id="icon-userCpntact" viewBox="0 0 32 32">
<path stroke-linejoin="round" stroke-linecap="round" stroke-miterlimit="4" stroke-width="2.6667" d="M26.667 28v-2.667c0-2.946-2.388-5.333-5.333-5.333v0h-10.667c-2.946 0-5.333 2.388-5.333 5.333v0 2.667"></path>
<path stroke-linejoin="round" stroke-linecap="round" stroke-miterlimit="4" stroke-width="2.6667" d="M21.333 9.333c0 2.946-2.388 5.333-5.333 5.333s-5.333-2.388-5.333-5.333c0-2.946 2.388-5.333 5.333-5.333s5.333 2.388 5.333 5.333z"></path>
</symbol>
<symbol id="icon-user-x" viewBox="0 0 32 32">
<path stroke-linejoin="round" stroke-linecap="round" stroke-miterlimit="4" stroke-width="2.6667" d="M21.333 28v-2.667c0-2.946-2.388-5.333-5.333-5.333v0h-9.333c-2.946 0-5.333 2.388-5.333 5.333v0 2.667"></path>
<path stroke-linejoin="round" stroke-linecap="round" stroke-miterlimit="4" stroke-width="2.6667" d="M16.667 9.333c0 2.946-2.388 5.333-5.333 5.333s-5.333-2.388-5.333-5.333c0-2.946 2.388-5.333 5.333-5.333s5.333 2.388 5.333 5.333z"></path>
<path stroke-linejoin="round" stroke-linecap="round" stroke-miterlimit="4" stroke-width="2.6667" d="M24 10.667l6.667 6.667"></path>
<path stroke-linejoin="round" stroke-linecap="round" stroke-miterlimit="4" stroke-width="2.6667" d="M30.667 10.667l-6.667 6.667"></path>
</symbol>
<symbol id="icon-user-plus" viewBox="0 0 32 32">
<path stroke-linejoin="round" stroke-linecap="round" stroke-miterlimit="4" stroke-width="2.6667" d="M21.333 28v-2.667c0-2.946-2.388-5.333-5.333-5.333v0h-9.333c-2.946 0-5.333 2.388-5.333 5.333v0 2.667"></path>
<path stroke-linejoin="round" stroke-linecap="round" stroke-miterlimit="4" stroke-width="2.6667" d="M16.667 9.333c0 2.946-2.388 5.333-5.333 5.333s-5.333-2.388-5.333-5.333c0-2.946 2.388-5.333 5.333-5.333s5.333 2.388 5.333 5.333z"></path>
<path stroke-linejoin="round" stroke-linecap="round" stroke-miterlimit="4" stroke-width="2.6667" d="M26.667 10.667v8"></path>
<path stroke-linejoin="round" stroke-linecap="round" stroke-miterlimit="4" stroke-width="2.6667" d="M30.667 14.667h-8"></path>
</symbol>
<symbol id="icon-user-minus" viewBox="0 0 32 32">
<path stroke-linejoin="round" stroke-linecap="round" stroke-miterlimit="4" stroke-width="2.6667" d="M21.333 28v-2.667c0-2.946-2.388-5.333-5.333-5.333v0h-9.333c-2.946 0-5.333 2.388-5.333 5.333v0 2.667"></path>
<path stroke-linejoin="round" stroke-linecap="round" stroke-miterlimit="4" stroke-width="2.6667" d="M16.667 9.333c0 2.946-2.388 5.333-5.333 5.333s-5.333-2.388-5.333-5.333c0-2.946 2.388-5.333 5.333-5.333s5.333 2.388 5.333 5.333z"></path>
<path stroke-linejoin="round" stroke-linecap="round" stroke-miterlimit="4" stroke-width="2.6667" d="M30.667 14.667h-8"></path>
</symbol>
<symbol id="icon-user-check" viewBox="0 0 32 32">
<path stroke-linejoin="round" stroke-linecap="round" stroke-miterlimit="4" stroke-width="2.6667" d="M21.333 28v-2.667c0-2.946-2.388-5.333-5.333-5.333v0h-9.333c-2.946 0-5.333 2.388-5.333 5.333v0 2.667"></path>
<path stroke-linejoin="round" stroke-linecap="round" stroke-miterlimit="4" stroke-width="2.6667" d="M16.667 9.333c0 2.946-2.388 5.333-5.333 5.333s-5.333-2.388-5.333-5.333c0-2.946 2.388-5.333 5.333-5.333s5.333 2.388 5.333 5.333z"></path>
<path stroke-linejoin="round" stroke-linecap="round" stroke-miterlimit="4" stroke-width="2.6667" d="M22.667 14.667l2.667 2.667 5.333-5.333"></path>
</symbol>
<symbol id="icon-moon" viewBox="0 0 32 32">
<path stroke-linejoin="round" stroke-linecap="round" stroke-miterlimit="4" stroke-width="2.6667" d="M28 17.053c-0.584 6.135-5.71 10.896-11.949 10.896-6.627 0-12-5.373-12-12 0-6.239 4.761-11.365 10.847-11.945l0.048-0.004c-1.142 1.53-1.828 3.459-1.828 5.548 0 5.155 4.179 9.333 9.333 9.333 2.089 0 4.017-0.686 5.572-1.845l-0.025 0.018z"></path>
</symbol>
<symbol id="icon-sun" viewBox="0 0 32 32">
<path stroke-linejoin="round" stroke-linecap="round" stroke-miterlimit="4" stroke-width="2.6667" d="M22.667 16c0 3.682-2.985 6.667-6.667 6.667s-6.667-2.985-6.667-6.667c0-3.682 2.985-6.667 6.667-6.667s6.667 2.985 6.667 6.667z"></path>
<path stroke-linejoin="round" stroke-linecap="round" stroke-miterlimit="4" stroke-width="2.6667" d="M16 1.333v2.667"></path>
<path stroke-linejoin="round" stroke-linecap="round" stroke-miterlimit="4" stroke-width="2.6667" d="M16 28v2.667"></path>
<path stroke-linejoin="round" stroke-linecap="round" stroke-miterlimit="4" stroke-width="2.6667" d="M5.627 5.627l1.893 1.893"></path>
<path stroke-linejoin="round" stroke-linecap="round" stroke-miterlimit="4" stroke-width="2.6667" d="M24.48 24.48l1.893 1.893"></path>
<path stroke-linejoin="round" stroke-linecap="round" stroke-miterlimit="4" stroke-width="2.6667" d="M1.333 16h2.667"></path>
<path stroke-linejoin="round" stroke-linecap="round" stroke-miterlimit="4" stroke-width="2.6667" d="M28 16h2.667"></path>
<path stroke-linejoin="round" stroke-linecap="round" stroke-miterlimit="4" stroke-width="2.6667" d="M5.627 26.373l1.893-1.893"></path>
<path stroke-linejoin="round" stroke-linecap="round" stroke-miterlimit="4" stroke-width="2.6667" d="M24.48 7.52l1.893-1.893"></path>
</symbol>
<symbol id="icon-check-circle" viewBox="0 0 32 32">
<path stroke-linejoin="round" stroke-linecap="round" stroke-miterlimit="4" stroke-width="2.6667" d="M29.333 14.773v1.227c-0.004 7.361-5.972 13.326-13.333 13.326-7.364 0-13.333-5.97-13.333-13.333s5.97-13.333 13.333-13.333c1.965 0 3.831 0.425 5.51 1.188l-0.084-0.034"></path>
<path stroke-linejoin="round" stroke-linecap="round" stroke-miterlimit="4" stroke-width="2.6667" d="M29.333 5.333l-13.333 13.347-4-4"></path>
</symbol>
<symbol id="icon-check" viewBox="0 0 32 32">
<path stroke-linejoin="round" stroke-linecap="round" stroke-miterlimit="4" stroke-width="2.6667" d="M26.667 8l-14.667 14.667-6.667-6.667"></path>
</symbol>
<symbol id="icon-DeviceMobile" viewBox="0 0 32 32">
<path fill="none" stroke="#fff" style="stroke: var(--color1, #fff)" stroke-linejoin="round" stroke-linecap="round" stroke-miterlimit="4" stroke-width="2" d="M22 3h-12c-1.105 0-2 0.895-2 2v22c0 1.105 0.895 2 2 2h12c1.105 0 2-0.895 2-2v-22c0-1.105-0.895-2-2-2z"></path>
<path fill="none" stroke="#fff" style="stroke: var(--color1, #fff)" stroke-linejoin="round" stroke-linecap="round" stroke-miterlimit="4" stroke-width="2" d="M8 7h16"></path>
<path fill="none" stroke="#fff" style="stroke: var(--color1, #fff)" stroke-linejoin="round" stroke-linecap="round" stroke-miterlimit="4" stroke-width="2" d="M8 25h16"></path>
</symbol>
<symbol id="icon-Eye" viewBox="0 0 32 32">
<path fill="#fff" style="fill: var(--color1, #fff)" d="M4.543 10.793c2.384-2.384 6.124-4.793 11.457-4.793s9.073 2.409 11.457 4.793c1.189 1.189 2.046 2.376 2.608 3.268 0.281 0.447 0.49 0.821 0.629 1.088 0.070 0.133 0.123 0.24 0.159 0.316 0.018 0.038 0.032 0.068 0.042 0.089l0.012 0.026 0.004 0.008 0.001 0.003 0 0.001c0 0.001 0 0.001-0.913 0.407 0.914 0.406 0.914 0.407 0.913 0.407l-0 0.001-0.001 0.003-0.004 0.008-0.012 0.026c-0.010 0.022-0.024 0.052-0.042 0.089-0.036 0.076-0.089 0.182-0.159 0.316-0.14 0.267-0.348 0.642-0.629 1.088-0.561 0.892-1.419 2.079-2.608 3.268-2.384 2.384-6.125 4.793-11.457 4.793s-9.073-2.409-11.457-4.793c-1.189-1.189-2.046-2.376-2.608-3.268-0.281-0.447-0.49-0.821-0.629-1.088-0.070-0.134-0.123-0.24-0.159-0.316-0.018-0.038-0.032-0.068-0.042-0.089l-0.012-0.026-0.005-0.011-0-0.001c-0-0-0-0.001 0.913-0.407-0.914-0.406-0.914-0.407-0.913-0.407l0-0.001 0.005-0.011 0.012-0.026c0.010-0.022 0.024-0.052 0.042-0.089 0.036-0.075 0.089-0.182 0.159-0.316 0.14-0.267 0.348-0.642 0.629-1.088 0.561-0.892 1.419-2.079 2.608-3.268zM2 16l-0.914-0.406c-0.115 0.258-0.115 0.554 0 0.812l0.914-0.406zM3.118 16c0.118 0.22 0.287 0.52 0.509 0.873 0.501 0.796 1.269 1.858 2.33 2.919 2.116 2.116 5.376 4.207 10.043 4.207s7.927-2.091 10.043-4.207c1.061-1.061 1.829-2.124 2.33-2.919 0.223-0.354 0.392-0.653 0.509-0.873-0.118-0.22-0.287-0.52-0.509-0.873-0.501-0.796-1.269-1.858-2.33-2.92-2.116-2.116-5.375-4.207-10.043-4.207s-7.927 2.091-10.043 4.207c-1.061 1.061-1.829 2.124-2.33 2.919-0.223 0.354-0.392 0.653-0.509 0.873zM30 16l0.914 0.406c0.115-0.259 0.115-0.554 0-0.812l-0.914 0.406z"></path>
<path fill="#fff" style="fill: var(--color1, #fff)" d="M16 12c-2.209 0-4 1.791-4 4s1.791 4 4 4c2.209 0 4-1.791 4-4s-1.791-4-4-4zM10 16c0-3.314 2.686-6 6-6s6 2.686 6 6c0 3.314-2.686 6-6 6s-6-2.686-6-6z"></path>
</symbol>
<symbol id="icon-EyeSlash" viewBox="0 0 32 32">
<path fill="#fff" style="fill: var(--color1, #fff)" d="M5.327 4.26c0.409-0.372 1.041-0.341 1.413 0.067l20 22c0.372 0.409 0.341 1.041-0.067 1.413s-1.041 0.341-1.413-0.067l-20-22c-0.372-0.409-0.341-1.041 0.067-1.413z"></path>
<path fill="#fff" style="fill: var(--color1, #fff)" d="M13.377 11.627c0.371 0.409 0.341 1.041-0.067 1.413-0.598 0.543-1.017 1.254-1.202 2.040s-0.129 1.609 0.162 2.362c0.291 0.753 0.803 1.4 1.469 1.857s1.454 0.701 2.262 0.701h0.004c0.993 0.004 1.951-0.367 2.683-1.037 0.407-0.373 1.040-0.345 1.413 0.062s0.345 1.040-0.062 1.413c-1.102 1.010-2.545 1.568-4.040 1.563-1.21-0-2.392-0.367-3.39-1.052s-1.767-1.656-2.204-2.785c-0.437-1.13-0.521-2.365-0.242-3.543s0.907-2.245 1.803-3.060c0.409-0.371 1.041-0.341 1.413 0.067z"></path>
<path fill="#fff" style="fill: var(--color1, #fff)" d="M10.143 8.125c0.249 0.493 0.051 1.094-0.442 1.343-2.377 1.2-4.080 2.939-5.194 4.393-0.555 0.725-0.959 1.373-1.221 1.835-0.064 0.113-0.12 0.215-0.167 0.303 0.118 0.22 0.287 0.52 0.51 0.874 0.501 0.796 1.269 1.858 2.33 2.919 2.116 2.116 5.375 4.207 10.043 4.207h0.008c2.184 0.018 4.341-0.485 6.292-1.468 0.493-0.248 1.095-0.050 1.343 0.443s0.050 1.095-0.443 1.343c-2.234 1.125-4.703 1.702-7.204 1.682-5.33-0.001-9.070-2.41-11.453-4.793-1.189-1.189-2.046-2.376-2.608-3.268-0.281-0.447-0.49-0.821-0.629-1.088-0.070-0.134-0.123-0.24-0.159-0.316-0.018-0.038-0.032-0.068-0.042-0.089l-0.012-0.026-0.005-0.011-0-0.001c-0-0-0-0.001 0.913-0.407-0.914-0.405-0.914-0.406-0.914-0.406l0.001-0.003 0.002-0.005 0.007-0.015c0.006-0.013 0.014-0.030 0.024-0.051 0.020-0.043 0.049-0.104 0.087-0.18 0.076-0.152 0.188-0.368 0.338-0.632 0.3-0.528 0.753-1.254 1.372-2.063 1.236-1.614 3.158-3.588 5.881-4.963 0.493-0.249 1.094-0.051 1.343 0.442zM2 16l-0.914-0.406c-0.115 0.258-0.115 0.554 0 0.812l0.914-0.406z"></path>
<path fill="#fff" style="fill: var(--color1, #fff)" d="M13.247 6.226c0.91-0.152 1.831-0.228 2.754-0.226-0 0 0 0 0 0l-0.001 1v-1c0 0 0.001 0 0.001 0 5.332 0 9.072 2.409 11.456 4.793 1.189 1.189 2.046 2.376 2.608 3.268 0.281 0.447 0.49 0.821 0.629 1.088 0.070 0.133 0.123 0.24 0.159 0.316 0.018 0.038 0.032 0.068 0.042 0.089l0.012 0.026 0.004 0.008 0.001 0.003 0 0.001c0 0 0 0.001-0.913 0.407-0.914-0.406-0.914-0.406-0.914-0.406l-0.008 0.017c-0.007 0.015-0.019 0.040-0.035 0.074-0.033 0.068-0.085 0.172-0.156 0.306-0.002 0.003-0.004 0.007-0.005 0.010-0.118-0.22-0.287-0.52-0.509-0.873-0.501-0.796-1.269-1.858-2.33-2.92-2.116-2.116-5.375-4.207-10.043-4.207h-0.002c-0.811-0.002-1.621 0.065-2.42 0.199-0.545 0.091-1.060-0.276-1.151-0.821s0.277-1.060 0.821-1.151zM30 16l0.914 0.406c0.115-0.259 0.115-0.554 0-0.812l-0.914 0.406zM28.882 16c-0.143 0.268-0.361 0.651-0.66 1.107-0.605 0.926-1.532 2.138-2.814 3.285-0.412 0.368-0.447 1-0.079 1.412s1 0.447 1.412 0.079c1.443-1.291 2.479-2.647 3.155-3.681 0.339-0.518 0.589-0.958 0.756-1.272 0.084-0.157 0.147-0.283 0.19-0.373 0.022-0.045 0.038-0.080 0.050-0.105l0.014-0.031 0.004-0.009 0.002-0.005c0-0 0-0.001-0.913-0.407-0.914 0.406-0.914 0.407-0.913 0.407l-0.006-0.013c-0.006-0.012-0.015-0.033-0.029-0.061-0.027-0.056-0.070-0.143-0.129-0.256-0.013-0.024-0.026-0.050-0.041-0.077z"></path>
<path fill="#fff" style="fill: var(--color1, #fff)" d="M15.955 10.902c0.103-0.543 0.626-0.899 1.169-0.796 1.276 0.242 2.44 0.892 3.314 1.853s1.412 2.18 1.533 3.474c0.051 0.55-0.353 1.037-0.903 1.088s-1.037-0.353-1.088-0.903c-0.080-0.861-0.439-1.674-1.021-2.313s-1.357-1.073-2.207-1.234c-0.543-0.103-0.899-0.626-0.796-1.169z"></path>
</symbol>
<symbol id="icon-List" viewBox="0 0 32 32">
<path fill="#fff" style="fill: var(--color1, #fff)" d="M4 16c0-0.552 0.448-1 1-1h22c0.552 0 1 0.448 1 1s-0.448 1-1 1h-22c-0.552 0-1-0.448-1-1z"></path>
<path fill="#fff" style="fill: var(--color1, #fff)" d="M4 8c0-0.552 0.448-1 1-1h15c0.552 0 1 0.448 1 1s-0.448 1-1 1h-15c-0.552 0-1-0.448-1-1z"></path>
<path fill="#fff" style="fill: var(--color1, #fff)" d="M4 24c0-0.552 0.448-1 1-1h15c0.552 0 1 0.448 1 1s-0.448 1-1 1h-15c-0.552 0-1-0.448-1-1z"></path>
</symbol>
<symbol id="icon-MagnifyingGlass" viewBox="0 0 32 32">
<path fill="#fff" style="fill: var(--color1, #fff)" d="M14.5 5c-5.247 0-9.5 4.253-9.5 9.5s4.253 9.5 9.5 9.5c5.247 0 9.5-4.253 9.5-9.5s-4.253-9.5-9.5-9.5zM3 14.5c0-6.351 5.149-11.5 11.5-11.5s11.5 5.149 11.5 11.5c0 6.351-5.149 11.5-11.5 11.5s-11.5-5.149-11.5-11.5z"></path>
<path fill="#fff" style="fill: var(--color1, #fff)" d="M21.218 21.218c0.39-0.39 1.024-0.39 1.414 0l6.075 6.075c0.39 0.39 0.39 1.024 0 1.414s-1.024 0.39-1.414 0l-6.075-6.075c-0.39-0.39-0.39-1.024 0-1.414z"></path>
</symbol>
<symbol id="icon-UserAuth" viewBox="0 0 32 32">
<path fill="#fff" style="fill: var(--color1, #fff)" d="M16 5c-3.866 0-7 3.134-7 7s3.134 7 7 7c3.866 0 7-3.134 7-7s-3.134-7-7-7zM7 12c0-4.971 4.029-9 9-9s9 4.029 9 9c0 4.971-4.029 9-9 9s-9-4.029-9-9z"></path>
<path fill="#fff" style="fill: var(--color1, #fff)" d="M16 20.999c-2.282 0-4.524 0.601-6.501 1.742s-3.617 2.782-4.758 4.759c-0.276 0.478-0.888 0.642-1.366 0.366s-0.642-0.888-0.366-1.366c1.316-2.281 3.21-4.174 5.49-5.491s4.867-2.010 7.501-2.010 5.22 0.693 7.501 2.010c2.28 1.317 4.174 3.211 5.491 5.491 0.276 0.478 0.112 1.090-0.366 1.366s-1.090 0.112-1.366-0.366c-1.141-1.977-2.782-3.618-4.758-4.759s-4.218-1.742-6.5-1.742z"></path>
</symbol>
<symbol id="icon-UserHeder" viewBox="0 0 32 32">
<path fill="#fff" style="fill: var(--color1, #fff)" d="M16 5c-6.075 0-11 4.925-11 11s4.925 11 11 11c6.075 0 11-4.925 11-11s-4.925-11-11-11zM3 16c0-7.18 5.82-13 13-13s13 5.82 13 13c0 7.18-5.82 13-13 13s-13-5.82-13-13z"></path>
<path fill="#fff" style="fill: var(--color1, #fff)" d="M16 11c-2.209 0-4 1.791-4 4s1.791 4 4 4c2.209 0 4-1.791 4-4s-1.791-4-4-4zM10 15c0-3.314 2.686-6 6-6s6 2.686 6 6c0 3.314-2.686 6-6 6s-6-2.686-6-6z"></path>
<path fill="#fff" style="fill: var(--color1, #fff)" d="M16 20.999c-1.477 0-2.926 0.409-4.185 1.182s-2.28 1.879-2.948 3.197c-0.25 0.492-0.852 0.689-1.344 0.439s-0.689-0.852-0.439-1.344c0.836-1.647 2.112-3.030 3.685-3.996s3.384-1.477 5.231-1.477 3.657 0.511 5.231 1.477c1.574 0.966 2.849 2.349 3.686 3.996 0.25 0.492 0.053 1.094-0.439 1.344s-1.094 0.053-1.344-0.439c-0.669-1.317-1.689-2.424-2.948-3.197s-2.708-1.182-4.185-1.182z"></path>
</symbol>
<symbol id="icon-icon-close" viewBox="0 0 32 32">
<path fill="none" stroke="#4f2ee8" style="stroke: var(--color2, #4f2ee8)" stroke-linejoin="round" stroke-linecap="round" stroke-miterlimit="4" stroke-width="3.4286" d="M24 8l-16 16M8 8l16 16"></path>
</symbol>
<symbol id="icon-caret-down-heder" viewBox="0 0 28 32">
<path fill="#fff" style="fill: var(--color1, #fff)" d="M5.898 12h16.513l-7.423 8.391c-0.221 0.25-0.521 0.39-0.834 0.39s-0.613-0.14-0.834-0.39l-7.422-8.391z"></path>
</symbol>
<symbol id="icon-lockAuth" viewBox="0 0 32 32">
<path stroke-linejoin="round" stroke-linecap="round" stroke-miterlimit="4" stroke-width="2.2857" d="M22.667 14.667v-4c0-3.682-2.985-6.667-6.667-6.667s-6.667 2.985-6.667 6.667v4M10.4 28h11.2c2.24 0 3.36 0 4.216-0.436 0.753-0.383 1.365-0.995 1.748-1.748 0.436-0.856 0.436-1.976 0.436-4.216v-0.533c0-2.24 0-3.36-0.436-4.216-0.383-0.753-0.995-1.365-1.748-1.748-0.856-0.436-1.976-0.436-4.216-0.436h-11.2c-2.24 0-3.36 0-4.216 0.436-0.753 0.384-1.365 0.995-1.748 1.748-0.436 0.856-0.436 1.976-0.436 4.216v0.533c0 2.24 0 3.36 0.436 4.216 0.383 0.753 0.995 1.365 1.748 1.748 0.856 0.436 1.976 0.436 4.216 0.436z"></path>
</symbol>
<symbol id="icon-mailAuth" viewBox="0 0 32 32">
<path stroke-linejoin="round" stroke-linecap="round" stroke-miterlimit="4" stroke-width="2.2857" d="M28.666 24l-8.857-8M12.19 16l-8.857 8M2.667 9.333l10.887 7.621c0.882 0.617 1.322 0.926 1.802 1.045 0.423 0.106 0.866 0.106 1.29 0 0.479-0.12 0.92-0.428 1.802-1.045l10.887-7.621M9.067 26.667h13.867c2.24 0 3.36 0 4.216-0.436 0.753-0.384 1.365-0.995 1.748-1.748 0.436-0.856 0.436-1.976 0.436-4.216v-8.533c0-2.24 0-3.36-0.436-4.216-0.383-0.753-0.995-1.365-1.748-1.748-0.856-0.436-1.976-0.436-4.216-0.436h-13.867c-2.24 0-3.36 0-4.216 0.436-0.753 0.383-1.365 0.995-1.748 1.748-0.436 0.856-0.436 1.976-0.436 4.216v8.533c0 2.24 0 3.36 0.436 4.216 0.384 0.753 0.995 1.365 1.748 1.748 0.856 0.436 1.976 0.436 4.216 0.436z"></path>
</symbol>
<symbol id="icon-trash" viewBox="0 0 32 32">
<path fill="none" stroke="#fff" style="stroke: var(--color1, #fff)" stroke-linejoin="round" stroke-linecap="round" stroke-miterlimit="4" stroke-width="2.6667" d="M12 4h8M4 8h24M25.333 8l-0.935 14.026c-0.14 2.104-0.21 3.156-0.665 3.954-0.4 0.702-1.004 1.267-1.731 1.62-0.826 0.4-1.881 0.4-3.99 0.4h-4.025c-2.109 0-3.163 0-3.99-0.4-0.727-0.353-1.331-0.917-1.731-1.62-0.455-0.798-0.525-1.85-0.665-3.954l-0.935-14.026M13.333 14v6.667M18.667 14v6.667"></path>
</symbol>
</defs>
</svg>
